<svg width="32" height="32" viewBox="0 0 32 32" fill="none" xmlns="http://www.w3.org/2000/svg">
<path d="M23.6667 4C26.0599 4 28 5.94009 28 8.33333V23.6667C28 26.0599 26.0599 28 23.6667 28H8.33333C5.94009 28 4 26.0599 4 23.6667V8.33333C4 5.94009 5.94009 4 8.33333 4H23.6667ZM26 11.3333H6V23.6667C6 24.9553 7.04467 26 8.33333 26H23.6667C24.9553 26 26 24.9553 26 23.6667V11.3333ZM10.3333 19.3333C11.2538 19.3333 12 20.0795 12 21C12 21.9205 11.2538 22.6667 10.3333 22.6667C9.41285 22.6667 8.66667 21.9205 8.66667 21C8.66667 20.0795 9.41285 19.3333 10.3333 19.3333ZM16 19.3333C16.9205 19.3333 17.6667 20.0795 17.6667 21C17.6667 21.9205 16.9205 22.6667 16 22.6667C15.0795 22.6667 14.3333 21.9205 14.3333 21C14.3333 20.0795 15.0795 19.3333 16 19.3333ZM10.3333 14C11.2538 14 12 14.7461 12 15.6667C12 16.5872 11.2538 17.3333 10.3333 17.3333C9.41285 17.3333 8.66667 16.5872 8.66667 15.6667C8.66667 14.7461 9.41285 14 10.3333 14ZM16 14C16.9205 14 17.6667 14.7461 17.6667 15.6667C17.6667 16.5872 16.9205 17.3333 16 17.3333C15.0795 17.3333 14.3333 16.5872 14.3333 15.6667C14.3333 14.7461 15.0795 14 16 14ZM21.6667 14C22.5872 14 23.3333 14.7461 23.3333 15.6667C23.3333 16.5872 22.5872 17.3333 21.6667 17.3333C20.7461 17.3333 20 16.5872 20 15.6667C20 14.7461 20.7461 14 21.6667 14ZM23.6667 6H8.33333C7.04467 6 6 7.04467 6 8.33333V9.33333H26V8.33333C26 7.04467 24.9553 6 23.6667 6Z" fill="#1D1D26"/>
</svg>
