<svg width="32" height="32" viewBox="0 0 32 32" fill="none" xmlns="http://www.w3.org/2000/svg">
<path d="M2.66732 7.66667C2.66732 5.64163 4.30895 4 6.33399 4H25.6673C27.6924 4 29.334 5.64163 29.334 7.66667V20.3333C29.334 22.3584 27.6924 24 25.6673 24H13.334V22.6673C13.494 22.4544 13.6415 22.2316 13.7755 22H25.6673C26.5879 22 27.334 21.2539 27.334 20.3333V7.66667C27.334 6.74619 26.5879 6 25.6673 6H6.33399C5.41351 6 4.66732 6.74619 4.66732 7.66667V12.8919C3.88684 13.3433 3.20638 13.9485 2.66732 14.666V7.66667ZM9.00066 9.33333C8.44838 9.33333 8.00066 9.78105 8.00066 10.3333C8.00066 10.8856 8.44838 11.3333 9.00066 11.3333H23.0007C23.5529 11.3333 24.0007 10.8856 24.0007 10.3333C24.0007 9.78105 23.5529 9.33333 23.0007 9.33333H9.00066ZM17.0007 16C16.4484 16 16.0007 16.4477 16.0007 17C16.0007 17.5523 16.4484 18 17.0007 18H23.0007C23.5529 18 24.0007 17.5523 24.0007 17C24.0007 16.4477 23.5529 16 23.0007 16H17.0007ZM8.00022 13.3333C5.05422 13.3333 2.66602 15.7215 2.66602 18.6675C2.66602 21.6135 5.05422 24.0017 8.00022 24.0017C10.9462 24.0017 13.3344 21.6135 13.3344 18.6675C13.3344 15.7215 10.9462 13.3333 8.00022 13.3333ZM12.0017 24.0013C10.8871 24.8388 9.50163 25.3351 8.00022 25.3351C6.49999 25.3351 5.11548 24.8396 4.00143 24.0033L4.00079 28.3316C4.00079 29.0927 4.80679 29.5575 5.45424 29.2235L5.57354 29.1513L8.00068 27.4549L10.4269 29.1513C11.0507 29.5872 11.8934 29.1928 11.9904 28.4707L11.9996 28.3316L12.0017 24.0013Z" fill="#77777D"/>
</svg>
