<svg width="33" height="45" viewBox="0 0 33 45" fill="none" xmlns="http://www.w3.org/2000/svg">
<path d="M29.906 41.3602L16.4999 44.9993L3.09361 41.3602L0 7.57227H33L29.906 41.3602Z" fill="#77777D"/>
<path d="M16.5 10.3105V42.0983L16.5303 42.1067L27.3793 39.1615L29.8835 10.3105H16.5Z" fill="#94949C"/>
<path d="M8.89179 4.21162V2.20057H11.8022V0H6.70898V6.2197H11.8022V4.21162H8.89179ZM17.0378 2.20057H19.0726V0H13.9788V2.20057C14.6603 2.88759 15.0157 3.21642 16.0013 4.21003C15.4252 4.21003 13.9788 4.21212 13.9788 4.21202V6.2197H19.0726V4.21162L17.0378 2.20057ZM24.2573 2.20057H26.292V0H21.198V2.20057C21.8795 2.88759 22.2351 3.21642 23.2207 4.21003C22.6447 4.21003 21.198 4.21212 21.198 4.21202V6.2197H26.2921V4.21162L24.2573 2.20057Z" fill="#77777D"/>
<path d="M16.4897 18.7586L6.89453 22.7872L7.21273 26.7759L16.4897 22.7771L26.358 18.5236L26.7672 14.4434L16.4897 18.7586Z" fill="white"/>
<path d="M6.89453 22.7865L7.21273 26.7751L16.4897 22.7763V18.7578L6.89453 22.7865Z" fill="white"/>
<path d="M26.7657 14.4434L16.4883 18.7585V22.777L26.3566 18.5235L26.7657 14.4434Z" fill="white"/>
<path d="M6.91016 22.7852L7.22845 26.7738L21.4628 26.8196L21.1444 32.1377L16.4605 33.4671L11.9578 32.321L11.685 29.02H7.50128L8.04703 35.3926L16.5059 37.9141L24.919 35.4384L26.0105 22.7852H6.91016Z" fill="white"/>
<path opacity="0.05" d="M16.4897 22.7852H6.89453L7.21273 26.7738L16.4897 26.8037V22.7852ZM16.4897 33.4544L16.4442 33.4672L11.9422 32.3211L11.6694 29.0201H7.48575L8.03141 35.3927L16.4897 37.9142V33.4544Z" fill="white"/>
<path d="M6.0293 14.4434H26.7661L26.3569 18.5236H6.52948L6.0293 14.4434Z" fill="white"/>
<path opacity="0.05" d="M16.4886 14.4434H6.0293L6.52948 18.5236H16.4886V14.4434Z" fill="white"/>
</svg>
