<svg width="32" height="32" viewBox="0 0 32 32" fill="none" xmlns="http://www.w3.org/2000/svg">
<path d="M13.2117 4.9322C14.9109 3.84291 17.0891 3.84291 18.7883 4.9322L29.5397 11.8242C29.8252 12.0072 29.9985 12.3225 30 12.6617C30.0015 13.0009 29.8309 13.3177 29.5469 13.5032L25.3333 16.2562V23.666C25.3333 23.8823 25.2632 24.0928 25.1333 24.266L25.1319 24.2679L25.1303 24.2702L25.1261 24.2755L25.1152 24.2898C25.1095 24.2971 25.1025 24.3058 25.0945 24.3158C25.0905 24.3208 25.0861 24.3263 25.0815 24.332C25.0539 24.3662 25.0159 24.412 24.9671 24.4678C24.8696 24.5791 24.7292 24.7304 24.5441 24.9082C24.174 25.2635 23.6235 25.7258 22.8783 26.1843C21.3812 27.1056 19.1183 27.9994 16 27.9994C12.8817 27.9994 10.6188 27.1056 9.12173 26.1843C8.37653 25.7258 7.82601 25.2635 7.45591 24.9082C7.27077 24.7304 7.13037 24.5791 7.03291 24.4678C6.97605 24.4027 6.92013 24.3368 6.86809 24.2679C6.86608 24.2652 6.86667 24.266 6.86667 24.266C6.73684 24.0928 6.66667 23.8823 6.66667 23.666V16.2562L4 14.5139V21.666C4 22.2183 3.55228 22.666 3 22.666C2.44772 22.666 2 22.2183 2 21.666V12.666C2 12.3053 2.19091 11.9893 2.47717 11.8134L13.2117 4.9322ZM18.8259 20.5076C17.1089 21.6294 14.8911 21.6294 13.1741 20.5076L8.66667 17.5627V23.291C8.71573 23.3423 8.77379 23.401 8.84097 23.4655C9.12191 23.7351 9.56096 24.1063 10.1699 24.481C11.3812 25.2264 13.285 25.9994 16 25.9994C18.7151 25.9994 20.6188 25.2264 21.8301 24.481C22.4391 24.1063 22.8781 23.7351 23.1591 23.4655C23.2263 23.401 23.2843 23.3423 23.3333 23.291V17.5627L18.8259 20.5076ZM17.7089 6.61596C16.6675 5.94832 15.3325 5.94832 14.2911 6.61596L4.84055 12.674L14.268 18.8332C15.3203 19.5208 16.6797 19.5208 17.732 18.8332L27.1595 12.674L17.7089 6.61596Z" fill="#77777D"/>
</svg>
