<svg width="31" height="45" viewBox="0 0 31 45" fill="none" xmlns="http://www.w3.org/2000/svg">
<path fill-rule="evenodd" clip-rule="evenodd" d="M8.53567 0C3.82263 0 0.00195312 3.8264 0.00195312 8.54651C0.00195312 11.4272 1.425 13.975 3.60547 15.5233C1.425 17.0715 0.00195312 19.6194 0.00195312 22.5C0.00195312 25.3806 1.425 27.9285 3.60549 29.4767C1.425 31.0251 0.00195312 33.5727 0.00195312 36.4536C0.00195312 41.1735 3.82263 45 8.53567 45C13.2487 45 17.0695 41.1735 17.0695 36.4536V29.119C18.5401 30.3237 20.42 31.0464 22.4683 31.0464C27.1814 31.0464 31.002 27.2202 31.002 22.5C31.002 19.6194 29.5789 17.0715 27.3986 15.5232C29.5789 13.975 31.002 11.4272 31.002 8.54651C31.002 3.8264 27.1814 0 22.4683 0H8.53567ZM13.9346 27.9069H8.53567C5.55394 27.9069 3.13679 25.4861 3.13679 22.5C3.13679 19.5139 5.55394 17.093 8.53567 17.093L13.9346 17.093V22.5V27.9069ZM8.53567 13.9535H13.9346V3.13953H8.53567C5.55394 3.13953 3.13679 5.56033 3.13679 8.54651C3.13679 11.5327 5.55394 13.9535 8.53567 13.9535ZM27.8671 8.54651C27.8671 11.5308 25.4531 13.9504 22.4741 13.9535L19.7717 13.9535H17.0695V3.13953H22.4683C25.4499 3.13953 27.8671 5.56033 27.8671 8.54651ZM17.0695 22.4933C17.073 19.5124 19.4852 17.0966 22.4616 17.093H22.4735C25.4529 17.0958 27.8671 19.5156 27.8671 22.5C27.8671 25.4861 25.4499 27.9069 22.4683 27.9069C19.4887 27.9069 17.073 25.4897 17.0695 22.5067V22.4933ZM8.53567 31.0464C5.55394 31.0464 3.13679 33.4672 3.13679 36.4536C3.13679 39.4397 5.55394 41.8605 8.53567 41.8605C11.5175 41.8605 13.9346 39.4397 13.9346 36.4536V31.0464H8.53567Z" fill="#77777D"/>
</svg>
