<svg width="33" height="46" viewBox="0 0 33 46" fill="none" xmlns="http://www.w3.org/2000/svg">
<path d="M2.75 41.3891L0 7.42188H33L30.25 41.3891L16.5 45.4652L2.75 41.3891Z" fill="#77777D"/>
<path d="M30.25 10.1387H16.5V43.4266L27.5 40.0298L30.25 10.1387Z" fill="#94949C"/>
<path d="M7.5625 27.1224L6.1875 14.2148H27.5L26.8125 18.2909H10.3125L11 23.0463H26.125L24.75 35.9539L16.5 38.6713L8.25 35.9539L7.5625 29.1604H11.6875L12.375 32.5572L16.5 33.9158L20.625 32.5572L21.3125 27.1224H7.5625Z" fill="white"/>
<path d="M3.79492 0.464844H5.77423V2.39724H7.58485V0.464844H9.56434V6.31647H7.58502V4.3569H5.77441V6.31647H3.79509V0.464844H3.79492ZM12.1671 2.40539H10.4247V0.464844H15.8899V2.40539H14.1466V6.31647H12.1673V2.40539H12.1671ZM16.7571 0.464844H18.8214L20.0907 2.52097L21.3591 0.464844H23.4236V6.31647H21.4523V3.41617L20.0906 5.49667H20.0567L18.6941 3.41617V6.31647H16.7571V0.464844ZM24.4088 0.464844H26.3887V4.38237H29.1723V6.31647H24.4088V0.464844Z" fill="#77777D"/>
</svg>
