<svg width="45" height="45" viewBox="0 0 45 45" fill="none" xmlns="http://www.w3.org/2000/svg">
<path d="M0.00195312 16.2857C0.00195312 10.5852 0.00195312 7.7349 1.11135 5.5576C2.0872 3.64238 3.64433 2.08525 5.55955 1.10939C7.73686 0 10.5871 0 16.2876 0H28.7163C34.4168 0 37.2671 0 39.4443 1.10939C41.3595 2.08525 42.9167 3.64238 43.8925 5.5576C45.002 7.7349 45.002 10.5852 45.002 16.2857V28.7143C45.002 34.4149 45.002 37.2651 43.8925 39.4423C42.9167 41.3576 41.3595 42.9147 39.4443 43.8906C37.2671 45 34.4168 45 28.7163 45H16.2876C10.5871 45 7.73686 45 5.55955 43.8906C3.64433 42.9147 2.0872 41.3576 1.11135 39.4423C0.00195312 37.2651 0.00195312 34.4149 0.00195312 28.7143V16.2857Z" fill="#77777D"/>
<path d="M21.8095 28.2795H14.8363L13.4175 32.7999C13.3781 32.9679 13.2235 33.0868 13.0553 33.0785H9.52331C9.32189 33.0785 9.25146 32.965 9.312 32.7379L15.3495 14.9041C15.4099 14.7183 15.4703 14.5068 15.5306 14.2694C15.6097 13.8562 15.65 13.4364 15.6514 13.0155C15.6341 12.8911 15.7434 12.7813 15.8626 12.7987H20.6625C20.8031 12.7987 20.8835 12.8503 20.9039 12.9535L27.7566 32.7689C27.8169 32.9754 27.7566 33.0786 27.5755 33.0785H23.651C23.5134 33.0942 23.382 32.9999 23.3492 32.8618L21.8095 28.2795ZM15.9231 24.3784H20.6927C19.9091 21.7005 19.0247 19.0579 18.3079 16.3594C17.5345 19.0626 16.6908 21.7549 15.9231 24.3784Z" fill="white"/>
<path d="M31.8315 16.0808C31.5236 16.0935 31.2166 16.0393 30.9304 15.922C30.6443 15.8046 30.3856 15.6266 30.1712 15.3996C29.9574 15.1628 29.7912 14.885 29.6824 14.5821C29.5736 14.2793 29.5243 13.9574 29.5372 13.6348C29.5262 13.3155 29.581 12.9975 29.698 12.7013C29.8152 12.4052 29.9918 12.1378 30.2165 11.9165C30.4389 11.6974 30.7015 11.5258 30.9892 11.4116C31.2767 11.2973 31.5835 11.2427 31.8918 11.2508C32.6164 11.2508 33.1849 11.4727 33.5974 11.9165C33.8057 12.1471 33.9676 12.4176 34.0738 12.7124C34.1799 13.0073 34.2284 13.3208 34.2162 13.6348C34.2289 13.9585 34.1779 14.2817 34.0664 14.5848C33.955 14.8879 33.7852 15.165 33.5672 15.3996C33.3395 15.6299 33.0676 15.8093 32.769 15.9266C32.4702 16.0438 32.151 16.0963 31.8315 16.0808ZM29.7485 32.769V17.9695C29.7485 17.7837 29.8287 17.6908 29.99 17.6908H33.7032C33.8639 17.6908 33.9444 17.7837 33.9446 17.9695V32.769C33.9446 32.9757 33.8641 33.0789 33.7032 33.0787H30.0203C29.8391 33.0787 29.7485 32.9755 29.7485 32.769Z" fill="white"/>
</svg>
