<svg width="47" height="45" viewBox="0 0 47 45" fill="none" xmlns="http://www.w3.org/2000/svg">
<path d="M45.8671 32.43C45.8671 32.43 40.0216 48.0966 19.8971 44.4494C19.5804 44.3908 19.2767 44.2814 18.9692 44.189C18.8972 44.1681 18.8246 44.1452 18.7526 44.1247C18.4505 44.0313 18.1514 43.9355 17.8541 43.8325C17.8201 43.8207 17.7876 43.8096 17.7531 43.7975C17.4824 43.7029 17.213 43.6024 16.9472 43.501C16.8776 43.474 16.8083 43.4478 16.7391 43.4196C16.4527 43.3072 16.1677 43.1896 15.8858 43.0668C15.8339 43.0441 15.7837 43.0212 15.7309 42.9981C15.4842 42.889 15.2405 42.7761 14.9989 42.6613C14.9362 42.6296 14.8731 42.6004 14.8099 42.5708C14.7755 42.5537 14.7384 42.5366 14.7032 42.5191C14.5472 42.4416 14.3949 42.3611 14.2412 42.2811C14.1226 42.2203 14.0021 42.1611 13.8843 42.0983C13.6667 41.9804 13.4521 41.8607 13.2386 41.7383C13.1595 41.6934 13.0795 41.6501 13.0011 41.6048C12.7112 41.4353 12.4243 41.2593 12.1416 41.0813C12.0617 41.0304 11.9826 40.9765 11.9038 40.9239C11.7195 40.8053 11.5351 40.6867 11.3545 40.5628C11.3354 40.5498 11.3171 40.5362 11.2983 40.5229C11.2283 40.4757 11.1618 40.4274 11.0922 40.3773C10.9017 40.2457 10.7132 40.1112 10.5265 39.9743C10.4363 39.9067 10.3464 39.8387 10.2569 39.7706C10.0878 39.6424 9.91958 39.5112 9.75274 39.379C9.66977 39.3129 9.58561 39.2475 9.50265 39.1806C9.2992 39.014 9.09639 38.8445 8.89791 38.6734C8.86038 38.6408 8.82065 38.6088 8.78238 38.5746C8.77852 38.5731 8.77585 38.5701 8.77162 38.5666C8.54637 38.3704 8.32526 38.1693 8.10608 37.9641C8.03995 37.904 7.97409 37.8398 7.90759 37.7767C7.74388 37.6204 7.58172 37.463 7.42223 37.3034C7.35601 37.2388 7.29062 37.1734 7.22715 37.1079C7.02103 36.8973 6.81749 36.6864 6.61864 36.4708C6.61137 36.461 6.6041 36.4553 6.59536 36.4458C6.59187 36.442 6.5869 36.437 6.5835 36.4328C6.38005 36.21 6.18037 35.9823 5.98492 35.7539C5.93019 35.6896 5.87519 35.6239 5.8212 35.5589C5.67551 35.3844 5.53202 35.2103 5.3913 35.0339C5.3328 34.9605 5.27431 34.8865 5.21654 34.8127C5.05862 34.61 4.90254 34.4059 4.75142 34.1983C4.72309 34.1596 4.69292 34.1215 4.6657 34.0835C4.6599 34.0771 4.65503 34.0702 4.65116 34.0638C4.47604 33.8231 4.30699 33.5779 4.14097 33.3324C4.08937 33.2571 4.04081 33.1796 3.99105 33.1019C3.87093 32.9203 3.7531 32.7385 3.63915 32.5546C3.57954 32.4603 3.52289 32.3657 3.46549 32.2709C3.36184 32.0992 3.26048 31.9273 3.16216 31.754C3.10596 31.6559 3.0505 31.5601 2.99614 31.4594C2.96588 31.4062 2.93304 31.3513 2.90361 31.2956C2.85192 31.2027 2.80529 31.1059 2.75479 31.0112C2.6768 30.8626 2.5976 30.7132 2.52227 30.5619C-0.656159 24.246 -1.17481 16.5126 2.98657 10.5682L6.23463 6.474C2.57001 13.5133 4.21703 22.085 8.80151 28.2993C8.96707 28.5255 9.13658 28.7487 9.30978 28.9717C9.3634 29.039 9.41721 29.1067 9.47083 29.1714C9.61495 29.3538 9.76221 29.534 9.91103 29.7123C9.96465 29.775 10.017 29.8366 10.0717 29.9012C10.2707 30.1347 10.4741 30.3665 10.683 30.5926C10.6929 30.6036 10.7025 30.6136 10.7121 30.6242C10.9094 30.8382 11.1106 31.0495 11.3152 31.2579C11.3787 31.3217 11.4434 31.3849 11.508 31.4488C11.6687 31.6118 11.8328 31.77 11.9995 31.9273C12.0626 31.9897 12.1261 32.0497 12.1916 32.1117C12.4168 32.32 12.644 32.5272 12.8754 32.7294C12.8995 32.7504 12.9244 32.7697 12.9465 32.789C13.1607 32.9742 13.3776 33.1544 13.5972 33.3339C13.6737 33.3958 13.7517 33.4577 13.8297 33.5193C14.0021 33.6573 14.1766 33.7916 14.3522 33.9249C14.436 33.9888 14.522 34.0538 14.6089 34.1176C14.7998 34.2583 14.9925 34.3967 15.1873 34.5335C15.2534 34.578 15.3177 34.6263 15.3846 34.6711C15.5859 34.8095 15.7909 34.9441 15.9967 35.0756C16.0739 35.1266 16.1504 35.1798 16.2284 35.2293C16.5123 35.4079 16.7992 35.5835 17.0891 35.753C17.1637 35.7956 17.2382 35.8355 17.3116 35.8766C17.5305 36.0024 17.7496 36.1263 17.973 36.2449C18.0938 36.3118 18.2182 36.3723 18.3405 36.4365C18.5233 36.53 18.7062 36.6251 18.8913 36.7148C18.9612 36.749 19.0293 36.781 19.0978 36.8132C19.3338 36.9261 19.5706 37.0349 19.81 37.1428C19.8667 37.1672 19.9217 37.1926 19.9787 37.2169C20.2576 37.3382 20.5394 37.4546 20.8236 37.5658C20.8966 37.5947 20.9697 37.6225 21.0431 37.6515C21.3017 37.751 21.5622 37.8476 21.8257 37.94C21.8666 37.9544 21.9075 37.9692 21.9473 37.9837C22.241 38.0841 22.5366 38.1798 22.8347 38.2703C22.9107 38.2939 22.9869 38.3168 23.0649 38.3395C23.37 38.4292 23.6734 38.5262 23.9863 38.5966C32.2433 40.4642 40.9575 38.787 45.8671 32.43ZM16.7361 22.3865C17.1875 23.0285 17.687 23.7929 18.2856 24.3089C18.5021 24.5464 18.7293 24.7779 18.9607 25.0056C19.0188 25.0648 19.0789 25.1219 19.1389 25.18C19.3631 25.3967 19.5926 25.61 19.8282 25.8171C19.8381 25.8243 19.847 25.8343 19.8565 25.8412C19.8592 25.8442 19.8615 25.8449 19.8634 25.8479C20.1251 26.0753 20.3952 26.2947 20.669 26.5101C20.7299 26.5565 20.7902 26.6048 20.8518 26.652C21.1268 26.8614 21.4073 27.0674 21.6949 27.2635C21.7037 27.2696 21.7105 27.2758 21.7193 27.2818C21.8459 27.3692 21.9752 27.4505 22.1033 27.5342C22.1653 27.5738 22.2238 27.6163 22.2857 27.6536C22.4915 27.7847 22.6993 27.9121 22.9107 28.0345C22.9406 28.0528 22.9697 28.0679 22.9991 28.085C23.1808 28.1892 23.3663 28.2923 23.5514 28.3918C23.6156 28.4276 23.6815 28.4595 23.7472 28.4936C23.875 28.5598 24.0035 28.6278 24.1335 28.6921C24.153 28.7012 24.1734 28.7103 24.1921 28.7183C24.4572 28.8479 24.7245 28.9734 24.998 29.0912C25.0562 29.1171 25.1166 29.1398 25.1759 29.1642C25.3944 29.2562 25.6146 29.3463 25.8361 29.4307C25.9301 29.4661 26.0255 29.4999 26.1188 29.5337C26.3203 29.6082 26.5219 29.676 26.7254 29.7436C26.8176 29.7728 26.9078 29.8028 27 29.831C27.2892 29.9199 27.5752 30.0332 27.877 30.0826C43.415 32.6413 47.002 20.7516 47.002 20.7516C43.7681 25.38 37.506 27.5883 30.8236 25.8647C30.5271 25.7871 30.2346 25.7024 29.9443 25.6115C29.8547 25.5849 29.7675 25.5561 29.6791 25.5267C29.4726 25.4602 29.2671 25.3895 29.0634 25.3157C28.9704 25.2819 28.8771 25.2481 28.7856 25.2131C28.5626 25.1279 28.3419 25.0398 28.1236 24.9478C28.0635 24.9219 28.0035 24.8991 27.945 24.8725C27.6708 24.7537 27.4007 24.6291 27.1345 24.4982C26.9971 24.4316 26.8629 24.3612 26.7275 24.2922C26.6494 24.2523 26.571 24.2122 26.493 24.1723C26.3201 24.0789 26.148 23.9821 25.9785 23.884C25.9383 23.8609 25.8963 23.8391 25.8553 23.815C25.6454 23.6926 25.438 23.5665 25.2327 23.4371C25.1695 23.397 25.1083 23.3534 25.0452 23.3122C24.9094 23.225 24.7744 23.1366 24.6413 23.0469C24.3552 22.8507 24.0767 22.6448 23.8017 22.4365C23.7382 22.3868 23.6751 22.3384 23.6123 22.2888C20.6878 19.9933 18.3697 16.8568 17.2665 13.3003C16.1117 9.61169 16.3608 5.47122 18.3623 2.11105L15.9033 5.56072C12.8943 9.8648 13.0576 15.6263 15.4049 20.1783C15.7991 20.9414 16.2416 21.6815 16.7361 22.3865ZM33.1135 17.0616C33.2416 17.1091 33.3694 17.1513 33.499 17.1949C33.5556 17.2121 33.6122 17.2315 33.6692 17.2483C33.8521 17.3055 34.0337 17.3718 34.2227 17.4071C42.8027 19.0546 45.1293 13.0314 45.749 12.145C43.7103 15.0619 40.2851 15.7621 36.0812 14.7484C35.7496 14.6679 35.3848 14.5487 35.0641 14.4362C34.6537 14.2907 34.2502 14.125 33.857 13.9374C33.1101 13.581 32.3994 13.1487 31.7393 12.6536C27.9783 9.81718 25.6421 4.40638 28.0961 0L26.768 1.81917C24.9941 4.41396 24.8201 7.63639 26.0505 10.5024C27.3487 13.544 30.0088 15.9305 33.1135 17.0616Z" fill="#77777D"/>
</svg>
