<svg width="45" height="45" viewBox="0 0 45 45" fill="none" xmlns="http://www.w3.org/2000/svg">
<path d="M45 0H0V45H45V0Z" fill="#77777D"/>
<path d="M27.3223 37.4261L30.6354 35.2336C30.8951 36.0494 32.5394 37.9868 34.6163 37.9868C36.6932 37.9868 37.6575 36.8525 37.6575 36.1004C37.6575 34.0509 35.5367 33.3284 34.5181 32.9814C34.3519 32.9248 34.2153 32.8782 34.1218 32.8375C34.0737 32.8167 34.0012 32.7889 33.9082 32.7533C32.7753 32.3205 28.5956 30.7237 28.5956 26.0948C28.5956 20.9964 33.5159 20.4102 34.6287 20.4102C35.3565 20.4102 38.8566 20.4994 40.5997 23.775L37.3854 26.0184C36.6808 24.5908 35.51 24.1193 34.7894 24.1193C33.0091 24.1193 32.6382 25.4243 32.6382 26.0184C32.6382 27.6854 34.5724 28.4325 36.2054 29.0633C36.6328 29.2284 37.0394 29.3854 37.3854 29.549C39.1656 30.3902 41.7866 31.7669 41.7866 36.1004C41.7866 38.271 39.966 41.7852 35.3827 41.7852C29.2261 41.7852 27.5942 38.0889 27.3223 37.4261Z" fill="white"/>
<path d="M11.25 37.8616L14.7033 35.6704C14.9737 36.4857 16.0253 37.989 17.5508 37.989C19.0765 37.989 19.8574 36.4221 19.8574 35.6704V20.8926H24.1042V35.6704C24.173 37.7088 23.0426 41.7854 18.0534 41.7854C13.4663 41.7854 11.5592 39.0592 11.25 37.8616Z" fill="white"/>
</svg>
