<svg width="45" height="45" viewBox="0 0 45 45" fill="none" xmlns="http://www.w3.org/2000/svg">
<path d="M0.00195312 16.2857C0.00195312 10.5852 0.00195312 7.7349 1.11135 5.5576C2.0872 3.64238 3.64433 2.08525 5.55955 1.10939C7.73686 0 10.5871 0 16.2876 0H28.7163C34.4168 0 37.2671 0 39.4443 1.10939C41.3595 2.08525 42.9167 3.64238 43.8925 5.5576C45.002 7.7349 45.002 10.5852 45.002 16.2857V28.7143C45.002 34.4149 45.002 37.2651 43.8925 39.4423C42.9167 41.3576 41.3595 42.9147 39.4443 43.8906C37.2671 45 34.4168 45 28.7163 45H16.2876C10.5871 45 7.73686 45 5.55955 43.8906C3.64433 42.9147 2.0872 41.3576 1.11135 39.4423C0.00195312 37.2651 0.00195312 34.4149 0.00195312 28.7143V16.2857Z" fill="#77777D"/>
<path d="M9.64453 32.9727V13.1843C9.64453 13.0498 9.70078 12.9728 9.83204 12.9728C11.7697 12.9728 13.7064 12.8574 15.6445 12.8574C18.7895 12.8574 22.1947 13.9328 23.3883 17.2227C23.6696 18.0305 23.8195 18.8574 23.8195 19.7228C23.8195 21.3767 23.4446 22.742 22.6945 23.8189C20.5995 26.8272 16.9683 26.7804 13.7133 26.7804V32.9536C13.7387 33.1363 13.583 33.2228 13.4321 33.2228H9.86953C9.71954 33.2228 9.64453 33.1458 9.64453 32.9727ZM13.732 16.6844V23.1459C15.0227 23.2404 16.3732 23.2507 17.6132 22.8383C18.9824 22.4432 19.7321 21.2583 19.7321 19.8382C19.77 18.6282 19.1108 17.4672 17.9883 17.0305C16.7632 16.5211 15.0545 16.4905 13.732 16.6844Z" fill="white"/>
<path d="M35.5145 21.8686C34.9472 21.5695 34.3429 21.3508 33.7182 21.2184C32.9156 21.0295 29.7499 20.368 29.7486 22.0234C29.7767 22.9475 31.2437 23.4002 31.8919 23.6643C34.1674 24.4455 36.7424 25.842 36.6918 28.6492C36.7613 32.1437 33.3754 33.5408 30.4731 33.5411C28.9622 33.5567 27.3882 33.3227 26.0054 32.6741C25.8733 32.6042 25.7884 32.4549 25.794 32.3025V28.9587C25.7791 28.8247 25.9231 28.7075 26.0356 28.8039C27.3904 29.6232 28.9963 30.0212 30.5637 30.0424C31.2556 30.0424 32.6268 29.9754 32.6165 28.9587C32.6165 27.9832 30.9761 27.5346 30.3222 27.2868C29.3743 26.9485 28.4756 26.4797 27.6506 25.8935C26.4976 25.0712 25.7744 23.7527 25.794 22.3021C25.7873 19.0116 28.904 17.5346 31.7109 17.534C33.023 17.5231 34.4321 17.6203 35.6535 18.1532C35.8292 18.2048 35.8655 18.39 35.8649 18.5557V21.6828C35.876 21.877 35.6605 21.943 35.5145 21.8686Z" fill="white"/>
</svg>
