<svg width="32" height="32" viewBox="0 0 32 32" fill="none" xmlns="http://www.w3.org/2000/svg">
<path d="M15.0857 20.6656C15.3156 19.9543 15.6349 19.2832 16.0304 18.6656H7.00435C5.34833 18.6656 4.00586 20.0081 4.00586 21.6641V22.4344C4.00586 23.6247 4.43054 24.776 5.20357 25.6812C7.29197 28.1269 10.4733 29.3339 14.6678 29.3339C15.4677 29.3339 16.2308 29.2899 16.9565 29.2019C16.4352 28.6356 15.9881 27.9996 15.6312 27.3095C15.3184 27.3257 14.9973 27.3339 14.6678 27.3339C11.0167 27.3339 8.39555 26.3395 6.72447 24.3825C6.26067 23.8393 6.00586 23.1485 6.00586 22.4344V21.6641C6.00586 21.1127 6.4529 20.6656 7.00435 20.6656H15.0857ZM14.6678 2.67188C18.3497 2.67188 21.3345 5.65664 21.3345 9.33854C21.3345 13.0204 18.3497 16.0052 14.6678 16.0052C10.9859 16.0052 8.00113 13.0204 8.00113 9.33854C8.00113 5.65664 10.9859 2.67188 14.6678 2.67188ZM14.6678 4.67188C12.0905 4.67188 10.0011 6.76121 10.0011 9.33854C10.0011 11.9159 12.0905 14.0052 14.6678 14.0052C17.2452 14.0052 19.3345 11.9159 19.3345 9.33854C19.3345 6.76121 17.2452 4.67188 14.6678 4.67188ZM30.6673 23.3333C30.6673 27.3835 27.3841 30.6667 23.334 30.6667C19.2838 30.6667 16.0006 27.3835 16.0006 23.3333C16.0006 19.2832 19.2838 16 23.334 16C27.3841 16 30.6673 19.2832 30.6673 23.3333ZM24.0745 19.2275C23.8414 18.4797 22.8265 18.4797 22.5934 19.2275L21.8508 21.6103H19.4474C18.6932 21.6103 18.3796 22.6164 18.9897 23.0785L20.9341 24.5512L20.1914 26.9339C19.9584 27.6816 20.7793 28.3035 21.3896 27.8413L23.334 26.3688L25.2784 27.8413C25.8886 28.3035 26.7096 27.6816 26.4765 26.9339L25.7338 24.5512L27.6782 23.0785C28.2884 22.6164 27.9748 21.6103 27.2205 21.6103H24.8172L24.0745 19.2275Z" fill="#77777D"/>
</svg>
