<svg width="50" height="45" viewBox="0 0 50 45" fill="none" xmlns="http://www.w3.org/2000/svg">
<path d="M24.9896 27.211C27.5619 27.211 29.6471 25.1036 29.6471 22.504C29.6471 19.9042 27.5619 17.7969 24.9896 17.7969C22.4173 17.7969 20.332 19.9042 20.332 22.504C20.332 25.1036 22.4173 27.211 24.9896 27.211Z" fill="#77777D"/>
<path d="M50 22.5053C50 19.1578 45.8521 15.9854 39.4925 14.0181C40.96 7.46739 40.3077 2.25566 37.4337 0.587086C36.7713 0.195702 35.9967 0.0102956 35.1508 0.0102956V2.30716C35.6196 2.30716 35.9967 2.39987 36.3127 2.57496C37.6987 3.37836 38.3 6.4374 37.8312 10.3719C37.7192 11.3401 37.5356 12.3598 37.3115 13.4001C35.314 12.9057 33.1329 12.5246 30.8398 12.2774C29.464 10.3719 28.0371 8.64157 26.6 7.12749C29.9225 4.00665 33.0412 2.29687 35.161 2.29687V0C32.3583 0 28.6894 2.01878 24.9796 5.52073C21.2698 2.03937 17.6009 0.0412038 14.7982 0.0412038V2.33807C16.9079 2.33807 20.0367 4.03754 23.3592 7.13778C21.9323 8.65186 20.5055 10.3719 19.15 12.2774C16.8467 12.5246 14.6657 12.9057 12.6682 13.4104C12.4337 12.3804 12.2605 11.3813 12.1382 10.4234C11.6592 6.4889 12.2503 3.42986 13.6262 2.61616C13.9319 2.43075 14.3294 2.34837 14.7982 2.34837V0.0514995C13.9421 0.0514995 13.1675 0.236906 12.4949 0.62829C9.63106 2.29687 8.989 7.49828 10.4668 14.0284C4.1276 16.006 0 19.1681 0 22.5053C0 25.8525 4.14798 29.025 10.5075 30.9922C9.03996 37.5429 9.69221 42.7547 12.5662 44.4233C13.2287 44.8147 14.0033 45 14.8594 45C17.662 45 21.331 42.9813 25.0408 39.4793C28.7504 42.9607 32.4196 44.9587 35.2221 44.9587C36.0783 44.9587 36.8529 44.7735 37.5254 44.382C40.3894 42.7135 41.0315 37.5121 39.5535 30.9818C45.8725 29.0147 50 25.8424 50 22.5053ZM36.7306 15.6352C36.3535 16.9638 35.8846 18.3337 35.3546 19.7035C34.9369 18.8796 34.4985 18.0556 34.0196 17.2317C33.5508 16.4077 33.0515 15.6043 32.5521 14.8215C33.9992 15.0378 35.3954 15.3056 36.7306 15.6352ZM32.0627 26.6046C31.2679 27.995 30.4525 29.3133 29.6067 30.5391C28.0881 30.673 26.5492 30.745 25 30.745C23.461 30.745 21.9221 30.673 20.4138 30.5494C19.5679 29.3236 18.7424 28.0157 17.9474 26.6353C17.1729 25.2862 16.4696 23.9163 15.8276 22.536C16.4594 21.1559 17.1729 19.7757 17.9372 18.4264C18.7322 17.036 19.5475 15.7176 20.3934 14.4919C21.9119 14.358 23.4508 14.2859 25 14.2859C26.539 14.2859 28.0779 14.358 29.5862 14.4816C30.4321 15.7073 31.2577 17.0153 32.0525 18.3955C32.8271 19.7448 33.5304 21.1146 34.1725 22.4949C33.5304 23.8751 32.8271 25.2552 32.0627 26.6046ZM35.3546 25.2655C35.905 26.6457 36.3737 28.0258 36.761 29.3649C35.426 29.6944 34.0196 29.9725 32.5621 30.1889C33.0615 29.3958 33.561 28.582 34.0298 27.7479C34.4985 26.9238 34.9369 26.0896 35.3546 25.2655ZM25.0204 36.2554C24.0725 35.2667 23.1248 34.1647 22.1871 32.9595C23.1044 33.0008 24.0421 33.0315 24.9898 33.0315C25.9479 33.0315 26.8956 33.0111 27.8231 32.9595C26.9058 34.1647 25.9579 35.2667 25.0204 36.2554ZM17.4378 30.1889C15.9906 29.9725 14.5944 29.7047 13.2593 29.3752C13.6364 28.0464 14.1052 26.6766 14.6351 25.3068C15.053 26.1307 15.4912 26.9547 15.9702 27.7786C16.4492 28.6027 16.9384 29.4061 17.4378 30.1889ZM24.9694 8.75486C25.9173 9.74365 26.865 10.8457 27.8027 12.0508C26.8854 12.0096 25.9479 11.9787 25 11.9787C24.0421 11.9787 23.0942 11.9993 22.1667 12.0508C23.084 10.8457 24.0319 9.74365 24.9694 8.75486ZM17.4276 14.8215C16.9282 15.6146 16.4289 16.4283 15.96 17.2625C15.4912 18.0865 15.053 18.9105 14.6351 19.7345C14.0848 18.3543 13.616 16.9742 13.2287 15.6352C14.5638 15.3159 15.9702 15.0378 17.4276 14.8215ZM8.20425 27.7169C4.59642 26.1616 2.26254 24.1223 2.26254 22.5053C2.26254 20.8881 4.59642 18.8384 8.20425 17.2935C9.08073 16.9123 10.0387 16.5725 11.0273 16.2532C11.6082 18.2719 12.3726 20.3731 13.3204 22.5257C12.3828 24.6682 11.6286 26.7589 11.0579 28.7675C10.0489 28.4481 9.09092 28.098 8.20425 27.7169ZM13.6873 42.4353C12.3013 41.6319 11.7 38.5729 12.1688 34.6384C12.2809 33.6701 12.4643 32.6504 12.6885 31.6103C14.6861 32.1047 16.8671 32.4858 19.1602 32.733C20.5361 34.6384 21.9629 36.3687 23.4 37.8829C20.0775 41.0036 16.9588 42.7135 14.839 42.7135C14.3804 42.7032 13.9931 42.6105 13.6873 42.4353ZM37.8619 34.5868C38.3408 38.5215 37.7498 41.5805 36.3737 42.3941C36.0681 42.5796 35.6706 42.6619 35.2019 42.6619C33.0921 42.6619 29.9633 40.9626 26.6408 37.8623C28.0677 36.3482 29.4946 34.6281 30.85 32.7226C33.1533 32.4755 35.3344 32.0944 37.3319 31.5897C37.5662 32.63 37.7498 33.629 37.8619 34.5868ZM41.7856 27.7169C40.9092 28.098 39.951 28.4378 38.9625 28.7572C38.3817 26.7385 37.6173 24.6373 36.6694 22.4846C37.6071 20.3421 38.3612 18.2513 38.9319 16.2429C39.9408 16.5622 40.899 16.9123 41.7958 17.2935C45.4035 18.8487 47.7375 20.8881 47.7375 22.5053C47.7273 24.1223 45.3933 26.1719 41.7856 27.7169Z" fill="#77777D"/>
</svg>
