<svg width="48" height="45" viewBox="0 0 48 45" fill="none" xmlns="http://www.w3.org/2000/svg">
<path d="M33.2589 31.4277C35.0302 31.2466 36.3741 29.7386 36.313 27.9288C36.252 26.1193 34.7248 24.6716 32.8923 24.6716H32.7702C30.8765 24.7319 29.4107 26.3003 29.4718 28.1702C29.533 29.075 29.8994 29.8591 30.4491 30.402C28.3723 34.4437 25.196 37.3993 20.4317 39.8726C17.1942 41.5615 13.8349 42.1648 10.4754 41.7426C7.72669 41.3807 5.58882 40.1744 4.24482 38.1835C2.2903 35.2278 2.10712 32.0307 3.75637 28.8338C4.91699 26.5415 6.74925 24.8524 7.90987 24.0078C7.66557 23.2237 7.29899 21.8967 7.11581 20.9316C-1.74113 27.2654 -0.824816 35.8311 1.86282 39.8726C3.87843 42.8887 7.97099 44.7588 12.4911 44.7588C13.7126 44.7588 14.9342 44.6379 16.156 44.3366C23.9746 42.8284 29.8995 38.2439 33.2589 31.4277ZM44.0094 23.9477C39.3672 18.5791 32.5259 15.6234 24.7074 15.6234H23.7302C23.1805 14.5376 22.0198 13.8136 20.7371 13.8136H20.6149C18.7214 13.874 17.2557 15.4423 17.3166 17.3123C17.3778 19.122 18.9046 20.5697 20.7371 20.5697H20.8592C22.203 20.5094 23.3637 19.6649 23.8523 18.5186H24.9517C29.5941 18.5186 33.9918 19.8457 37.9624 22.4396C41.0163 24.4302 43.2154 27.0241 44.437 30.1608C45.4754 32.6943 45.4142 35.1675 44.3147 37.2788C42.6045 40.4757 39.7338 42.2251 35.9466 42.2251C33.5032 42.2251 31.1822 41.5013 29.9605 40.9584C29.2886 41.5615 28.0669 42.5266 27.2117 43.1301C29.8384 44.3364 32.5259 45 35.0914 45C40.9552 45 45.2922 41.8028 46.9414 38.6058C48.7126 35.1071 48.5904 29.075 44.0094 23.9477ZM12.9797 32.4529C13.0408 34.2625 14.5678 35.7101 16.4003 35.7101H16.5226C18.416 35.65 19.8819 34.0816 19.8208 32.2117C19.7598 30.4019 18.2326 28.9543 16.4003 28.9543H16.2782C16.156 28.9543 15.9726 28.9543 15.8507 29.0144C13.3462 24.9127 12.3079 20.449 12.6744 15.6232C12.9186 12.0039 14.1403 8.86708 16.2782 6.27319C18.0494 4.04127 21.4701 2.9555 23.7914 2.89533C30.2659 2.7746 33.0144 10.737 33.1978 13.9341C33.9918 14.1151 35.3357 14.5374 36.252 14.8391C35.5189 5.06706 29.4107 0 23.547 0C18.0494 0 12.9797 3.92093 10.9639 9.71178C8.15419 17.4329 9.98662 24.8524 13.4072 30.7037C13.1019 31.1259 12.9186 31.7893 12.9797 32.4529Z" fill="#77777D"/>
</svg>
