<svg width="45" height="45" viewBox="0 0 45 45" fill="none" xmlns="http://www.w3.org/2000/svg">
<path fill-rule="evenodd" clip-rule="evenodd" d="M22.5 0C26.9501 0 31.3002 1.3196 35.0003 3.79193C38.7004 6.26426 41.5843 9.77828 43.2873 13.8896C44.9903 18.001 45.4358 22.525 44.5677 26.8895C43.6995 31.2541 41.5566 35.2632 38.4099 38.4099C35.2632 41.5566 31.2541 43.6995 26.8895 44.5677C22.525 45.4358 18.001 44.9903 13.8896 43.2873C9.77828 41.5843 6.26426 38.7004 3.79193 35.0003C1.3196 31.3002 0 26.9501 0 22.5C0 16.5326 2.37053 10.8097 6.5901 6.5901C10.8097 2.37053 16.5326 0 22.5 0Z" fill="#77777D"/>
<path d="M36.6141 9.62937C35.5952 5.63402 28.9689 4.3258 22.6979 6.54687C18.7705 7.86658 15.142 9.9479 12.02 12.6717C8.56628 15.9021 8.01503 18.7145 8.24163 19.8894C9.0452 24.0358 14.7232 26.7454 17.0584 28.756V28.7672C16.3706 29.1063 11.3306 31.6601 10.1477 34.2637C8.90378 37.0151 10.3454 38.9886 11.3016 39.2538C12.7373 39.5995 14.2452 39.487 15.6137 38.9321C16.9822 38.3773 18.1427 37.4079 18.9323 36.1601C19.5849 35.1491 19.9932 34 20.1249 32.8039C20.2565 31.6078 20.108 30.3974 19.6909 29.2687C20.8157 28.9828 21.9849 28.9157 23.135 29.071C27.0822 29.5322 27.8568 31.996 27.7089 33.0278C27.6394 33.395 27.4916 33.743 27.2756 34.0481C27.0595 34.3531 26.7803 34.6081 26.457 34.7956C26.1806 34.9676 26.0954 35.0254 26.1195 35.154C26.1532 35.3388 26.2802 35.3324 26.5165 35.2922C27.1096 35.1054 27.6323 34.7433 28.0155 34.2536C28.3988 33.7638 28.6248 33.1695 28.6636 32.5488C28.7584 30.1381 26.4425 27.4285 22.3411 27.4976C21.1499 27.4636 19.9612 27.6265 18.8231 27.9797C18.7668 27.9154 18.709 27.8512 18.6495 27.7869C16.1134 25.082 11.427 23.1679 11.6247 19.531C11.697 18.2083 12.1566 14.7272 20.6247 10.5037C27.5675 7.04348 33.125 7.99651 34.0861 10.1067C35.4586 13.1217 31.1161 18.7226 23.9065 19.531C23.1096 19.6927 22.2865 19.673 21.4983 19.4733C20.7101 19.2735 19.977 18.8988 19.3534 18.377C18.9741 17.9592 18.9179 17.9415 18.7765 18.0187C18.5466 18.1456 18.6929 18.5153 18.7765 18.7338C19.0525 19.2314 19.4252 19.6688 19.8725 20.0204C20.3199 20.372 20.8329 20.6307 21.3816 20.7813C24.2163 21.3973 27.1729 21.1049 29.832 19.9456C34.205 18.2597 37.6154 13.5588 36.6141 9.62937ZM18.0291 29.9935C18.3483 31.0939 18.3321 32.2645 17.9825 33.3556C17.945 33.4692 17.9038 33.5817 17.8588 33.6931C17.8138 33.8045 17.765 33.9117 17.7125 34.0145C17.442 34.5679 17.0917 35.0786 16.6727 35.5301C15.3661 36.9556 13.5388 37.4956 12.7561 37.0408C11.9107 36.5506 12.3334 34.5401 13.849 32.9378C15.0135 31.7862 16.3561 30.83 17.825 30.106L18.0291 29.9935Z" fill="white"/>
</svg>
