<svg width="45" height="45" viewBox="0 0 45 45" fill="none" xmlns="http://www.w3.org/2000/svg">
<path d="M43.4094 4.76675L34.1433 0.279442C33.6201 0.0256537 33.0312 -0.0580966 32.4585 0.0398009C31.8858 0.137698 31.3575 0.412394 30.947 0.825808L0.614634 28.642C0.246614 28.9779 0.0263184 29.4471 0.00220873 29.9463C-0.021901 30.4456 0.15215 30.9341 0.486073 31.3043C0.526248 31.3479 0.566424 31.39 0.609813 31.4288L3.08622 33.6918C3.40981 33.9881 3.82634 34.1609 4.26346 34.1804C4.70058 34.1999 5.13068 34.0648 5.47906 33.7985L42.0145 5.93061C42.2904 5.71997 42.6194 5.591 42.9643 5.5582C43.3091 5.52541 43.6563 5.5901 43.9666 5.74499C44.2769 5.89989 44.5381 6.13883 44.7207 6.43493C44.9033 6.73104 45.0002 7.07254 45.0003 7.42099V7.31269C45.0003 6.78071 44.8509 6.25955 44.5695 5.80916C44.2881 5.35876 43.8859 4.99744 43.4094 4.76675Z" fill="#626266"/>
<path d="M43.4094 40.232L34.1433 44.7209C33.6199 44.974 33.0313 45.0573 32.4587 44.9595C31.8862 44.8616 31.3579 44.5873 30.947 44.1745L0.614634 16.3568C0.246614 16.0209 0.0263184 15.5517 0.00220873 15.0524C-0.021901 14.5531 0.15215 14.0646 0.486073 13.6944C0.526248 13.6508 0.566424 13.6088 0.609813 13.57L3.08622 11.3069C3.41014 11.0094 3.82762 10.8358 4.26582 10.8163C4.70402 10.7968 5.13511 10.9327 5.48388 11.2002L42.0145 39.0681C42.2904 39.2788 42.6194 39.4077 42.9643 39.4405C43.3091 39.4733 43.6563 39.4086 43.9666 39.2537C44.2769 39.0988 44.5381 38.8599 44.7207 38.5638C44.9033 38.2677 45.0002 37.9262 45.0003 37.5777V37.6941C44.9986 38.2247 44.8485 38.7441 44.5671 39.1928C44.2858 39.6416 43.8846 40.0017 43.4094 40.232Z" fill="#94949C"/>
<path d="M34.1442 44.7214C33.6207 44.9745 33.0321 45.0578 32.4596 44.9599C31.887 44.8621 31.3588 44.5878 30.9478 44.175C31.1786 44.4041 31.4715 44.5596 31.7897 44.622C32.108 44.6844 32.4375 44.651 32.7369 44.5258C33.0363 44.4007 33.2924 44.1895 33.473 43.9186C33.6535 43.6477 33.7506 43.3292 33.7521 43.0031V1.99655C33.7523 1.66887 33.6559 1.34849 33.475 1.07598C33.2941 0.80347 33.0369 0.591101 32.7359 0.465773C32.4349 0.340444 32.1037 0.307796 31.7842 0.371963C31.4648 0.436131 31.1715 0.594227 30.9414 0.826224C31.352 0.41296 31.8802 0.138247 32.4528 0.0400776C33.0254 -0.0580919 33.6142 0.0251329 34.1378 0.278242L43.4022 4.75909C43.8802 4.98863 44.284 5.34945 44.5669 5.79993C44.8499 6.25041 45.0004 6.77218 45.0012 7.30502V37.6946C45.0013 38.227 44.8519 38.7487 44.5701 39.1994C44.2883 39.6501 43.8857 40.0116 43.4086 40.2422L34.1442 44.7214Z" fill="#77777D"/>
</svg>
